<?xml version="1.0" encoding="UTF-8"?>
<svg xmlns="http://www.w3.org/2000/svg" xmlns:xlink="http://www.w3.org/1999/xlink" width="254pt" height="249pt" viewBox="0 0 254 249" version="1.1">
<g id="surface1">
<path style=" stroke:none;fill-rule:nonzero;fill:rgb(9.803922%,20%,56.078431%);fill-opacity:1;" d="M 189.992188 45.511719 C 189.148438 45.511719 188.300781 45.511719 187.453125 45.679688 C 184.574219 35.660156 179.15625 26.660156 171.199219 18.679688 C 158.667969 6.28125 143.597656 0 125.984375 0 C 108.207031 0 93.136719 6.28125 80.773438 18.679688 C 73.15625 26.324219 67.738281 34.984375 64.859375 44.492188 C 64.519531 44.492188 64.179688 44.492188 64.011719 44.492188 C 46.230469 44.492188 30.992188 50.773438 18.628906 63.171875 C 6.097656 75.738281 -0.164062 90.851562 0.00390625 108.683594 C -0.164062 126.515625 6.097656 141.628906 18.628906 154.023438 C 21.339844 156.910156 24.386719 159.457031 27.605469 161.667969 C 24.726562 168.96875 23.371094 176.777344 23.539062 185.101562 C 23.371094 202.933594 29.636719 218.050781 42.167969 230.445312 C 54.527344 243.007812 69.769531 249.292969 87.546875 249.292969 C 102.28125 249.292969 115.148438 244.878906 126.15625 236.21875 C 137.5 244.878906 150.710938 249.292969 165.4375 249.292969 C 183.050781 249.292969 198.121094 243.007812 210.652344 230.445312 C 223.183594 218.050781 229.445312 202.933594 229.445312 185.101562 C 229.445312 177.460938 228.261719 170.15625 225.890625 163.53125 C 229.109375 160.820312 232.15625 157.933594 235.203125 155.046875 C 247.566406 142.648438 253.832031 127.535156 254 109.703125 C 253.832031 91.871094 247.566406 76.757812 235.203125 64.191406 C 222.675781 51.796875 207.605469 45.511719 189.992188 45.511719 Z M 184.574219 47.886719 C 184.574219 48.230469 184.746094 48.566406 185.25 48.738281 C 185.421875 48.90625 185.761719 49.078125 186.269531 49.078125 C 187.453125 48.90625 188.808594 48.90625 189.992188 48.90625 C 206.757812 48.90625 220.980469 54.851562 232.835938 66.570312 C 244.691406 78.457031 250.617188 92.890625 250.617188 109.703125 C 250.445312 126.515625 244.519531 140.949219 232.835938 152.667969 C 229.617188 155.722656 226.230469 158.609375 222.84375 161.496094 C 222.503906 161.667969 222.335938 162.007812 222.335938 162.519531 C 222.167969 162.855469 222.167969 163.195312 222.335938 163.53125 C 224.878906 170.15625 226.0625 177.460938 226.0625 185.101562 C 226.0625 201.917969 220.132812 216.351562 208.28125 228.070312 C 196.425781 239.957031 182.203125 245.894531 165.4375 245.894531 C 150.878906 245.894531 138.179688 241.480469 127.171875 232.648438 C 126.832031 232.484375 126.492188 232.3125 126.15625 232.3125 C 125.648438 232.3125 125.308594 232.484375 125.140625 232.820312 C 114.472656 241.480469 101.941406 245.894531 87.546875 245.894531 C 70.785156 245.894531 56.390625 239.957031 44.539062 228.070312 C 32.683594 216.351562 26.757812 201.917969 26.925781 185.101562 C 26.757812 176.777344 28.113281 168.96875 31.332031 161.667969 C 31.5 161.328125 31.5 160.992188 31.332031 160.480469 C 31.160156 160.140625 30.992188 159.796875 30.652344 159.632812 C 27.097656 157.253906 23.878906 154.535156 21 151.648438 C 9.148438 139.929688 3.222656 125.496094 3.390625 108.683594 C 3.222656 91.871094 9.148438 77.433594 21 65.550781 C 32.855469 53.832031 47.246094 47.886719 64.011719 47.886719 C 64.6875 47.886719 65.367188 47.886719 66.214844 47.886719 C 66.550781 47.886719 66.890625 47.71875 67.230469 47.546875 C 67.398438 47.378906 67.566406 47.039062 67.738281 46.699219 C 70.445312 37.1875 75.523438 28.703125 83.144531 21.058594 C 94.828125 9.335938 109.222656 3.394531 125.984375 3.394531 C 142.75 3.394531 156.976562 9.335938 168.828125 21.058594 C 176.617188 28.871094 181.867188 37.871094 184.574219 47.886719 Z M 184.574219 47.886719 "/>
<path style=" stroke:none;fill-rule:nonzero;fill:rgb(9.803922%,20%,56.078431%);fill-opacity:1;" d="M 186.609375 55.871094 C 184.574219 55.871094 182.714844 55.363281 181.1875 54.171875 C 179.492188 52.984375 178.476562 51.453125 177.972656 49.585938 C 175.429688 40.757812 170.859375 32.941406 163.917969 25.984375 C 153.417969 15.453125 140.71875 10.1875 125.984375 10.1875 C 111.085938 10.1875 98.386719 15.453125 87.886719 25.8125 L 87.71875 25.984375 C 81.113281 32.605469 76.710938 40.074219 74.339844 48.566406 C 73.832031 50.433594 72.816406 51.796875 71.292969 52.984375 C 69.769531 54.171875 68.074219 54.683594 66.210938 54.683594 C 65.367188 54.683594 64.6875 54.683594 63.839844 54.683594 C 48.941406 54.683594 36.242188 59.949219 25.742188 70.308594 L 25.570312 70.476562 C 15.242188 81 9.992188 93.738281 9.992188 108.683594 C 9.992188 123.628906 15.242188 136.363281 25.742188 146.722656 C 28.449219 149.4375 31.328125 151.820312 34.378906 154.023438 C 36.070312 155.046875 37.257812 156.570312 37.765625 158.609375 C 38.273438 160.480469 38.273438 162.34375 37.425781 164.214844 C 34.886719 170.667969 33.53125 177.628906 33.53125 185.101562 C 33.53125 200.046875 38.78125 212.78125 49.28125 223.140625 C 59.777344 233.84375 72.476562 239.105469 87.378906 239.105469 C 100.078125 239.105469 111.253906 235.199219 120.738281 227.386719 C 122.261719 226.199219 124.125 225.523438 126.15625 225.523438 C 128.019531 225.347656 129.882812 226.027344 131.574219 227.386719 C 141.226562 235.199219 152.570312 239.105469 165.4375 239.105469 C 180.171875 239.105469 192.871094 233.84375 203.371094 223.3125 L 203.539062 223.140625 C 214.039062 212.78125 219.285156 200.046875 219.285156 185.101562 C 219.285156 178.140625 218.101562 171.6875 215.902344 165.742188 C 215.222656 164.042969 215.222656 162.34375 215.734375 160.480469 C 216.238281 158.609375 217.085938 157.253906 218.613281 156.0625 C 221.828125 153.519531 225.046875 150.796875 227.925781 147.910156 L 228.09375 147.746094 C 238.421875 137.386719 243.671875 124.648438 243.671875 109.703125 C 243.671875 94.757812 238.421875 82.019531 227.925781 71.492188 C 217.425781 60.96875 204.726562 55.699219 189.992188 55.699219 C 188.808594 55.699219 187.625 55.699219 186.609375 55.871094 Z M 180.683594 79.644531 C 195.074219 94.082031 202.355469 111.398438 202.355469 131.953125 C 202.355469 152.496094 195.074219 169.816406 180.683594 184.25 C 166.285156 198.683594 149.015625 205.820312 128.695312 205.992188 C 108.207031 205.820312 90.933594 198.683594 76.539062 184.25 C 62.148438 169.816406 55.035156 152.496094 55.035156 131.953125 C 55.035156 111.398438 62.148438 94.082031 76.539062 79.644531 C 90.933594 65.210938 108.207031 58.082031 128.695312 58.082031 C 149.015625 58.082031 166.285156 65.210938 180.683594 79.644531 Z M 180.683594 79.644531 "/>
<path style=" stroke:none;fill-rule:nonzero;fill:rgb(9.803922%,20%,56.078431%);fill-opacity:1;" d="M 195.921875 131.953125 C 195.921875 113.265625 189.316406 97.308594 176.109375 84.0625 C 163.070312 70.984375 147.152344 64.363281 128.527344 64.363281 C 109.898438 64.363281 93.980469 70.984375 80.945312 84.0625 C 67.90625 97.308594 61.300781 113.265625 61.300781 131.953125 C 61.300781 150.632812 67.90625 166.59375 80.945312 179.664062 C 93.980469 192.910156 109.898438 199.535156 128.527344 199.535156 C 147.152344 199.535156 163.070312 192.910156 176.109375 179.664062 C 189.316406 166.59375 195.921875 150.632812 195.921875 131.953125 Z M 173.738281 86.4375 C 186.269531 99.003906 192.53125 114.117188 192.53125 131.953125 C 192.53125 149.78125 186.269531 164.894531 173.738281 177.289062 C 161.375 189.859375 146.304688 196.144531 128.527344 196.144531 C 110.746094 196.144531 95.675781 189.859375 83.316406 177.289062 C 70.785156 164.894531 64.519531 149.78125 64.6875 131.953125 C 64.519531 114.117188 70.785156 99.003906 83.316406 86.4375 C 95.675781 74.039062 110.746094 67.757812 128.527344 67.757812 C 146.304688 67.757812 161.375 74.039062 173.738281 86.4375 Z M 173.738281 86.4375 "/>
<path style=" stroke:none;fill-rule:nonzero;fill:rgb(98.431373%,5.882353%,4.705882%);fill-opacity:1;" d="M 166.625 85.25 C 166.117188 84.738281 165.4375 84.398438 164.765625 84.398438 L 133.097656 84.398438 C 132.417969 84.398438 131.914062 84.738281 131.40625 85.25 C 130.898438 85.757812 130.558594 86.269531 130.558594 86.949219 L 130.558594 101.382812 C 130.558594 102.0625 130.898438 102.742188 131.40625 103.25 C 131.914062 103.761719 132.417969 103.929688 133.097656 103.929688 L 164.933594 103.929688 C 164.933594 104.269531 164.933594 104.609375 164.933594 104.949219 C 164.421875 108.175781 163.917969 110.890625 163.238281 113.441406 L 163.238281 113.265625 C 162.390625 115.476562 161.207031 117.34375 159.683594 118.703125 L 152.230469 110.890625 C 152.0625 110.554688 151.726562 110.378906 151.386719 110.210938 C 151.046875 110.042969 150.710938 110.042969 150.367188 110.042969 L 135.640625 109.871094 C 134.960938 109.871094 134.453125 110.210938 133.945312 110.722656 C 133.433594 111.230469 133.097656 111.742188 133.097656 112.421875 C 133.097656 113.097656 133.433594 113.777344 133.945312 114.285156 C 134.453125 114.796875 134.960938 114.964844 135.640625 114.964844 L 149.183594 115.136719 L 155.621094 122.101562 C 151.046875 124.988281 143.425781 126.34375 132.761719 126.003906 C 131.914062 126.003906 131.40625 126.179688 130.898438 126.683594 C 130.386719 127.191406 130.050781 127.703125 130.050781 128.554688 C 130.050781 129.230469 130.21875 129.742188 130.726562 130.253906 C 131.234375 130.761719 131.746094 131.101562 132.589844 131.101562 C 145.121094 131.613281 153.925781 129.914062 159.175781 126.003906 L 165.101562 132.289062 C 165.609375 132.800781 166.117188 132.964844 166.964844 132.964844 C 167.644531 132.964844 168.316406 132.800781 168.828125 132.289062 C 169.335938 131.777344 169.503906 131.269531 169.503906 130.589844 C 169.503906 129.742188 169.335938 129.230469 168.828125 128.726562 L 163.070312 122.4375 C 165.269531 120.570312 166.964844 118.023438 167.980469 114.964844 L 168.148438 114.964844 C 168.996094 112.078125 169.503906 109.023438 170.011719 105.628906 C 170.011719 105.460938 170.011719 105.460938 170.011719 105.289062 C 170.011719 105.117188 170.011719 105.117188 170.011719 104.949219 C 170.011719 104.269531 170.011719 103.761719 170.179688 103.25 C 170.179688 102.742188 170.179688 102.398438 170.179688 102.0625 C 170.179688 101.890625 170.179688 101.554688 170.179688 101.382812 C 170.179688 100.703125 170.011719 100.195312 169.503906 99.6875 C 168.996094 99.175781 168.320312 98.835938 167.644531 98.835938 L 135.640625 98.835938 L 135.640625 89.496094 L 164.765625 89.496094 C 165.4375 89.496094 166.117188 89.328125 166.625 88.816406 C 167.132812 88.304688 167.300781 87.628906 167.300781 86.949219 C 167.300781 86.269531 167.132812 85.757812 166.625 85.25 Z M 166.625 85.25 "/>
<path style=" stroke:none;fill-rule:nonzero;fill:rgb(98.431373%,5.882353%,4.705882%);fill-opacity:1;" d="M 168.996094 141.121094 C 168.996094 140.4375 168.828125 139.929688 168.320312 139.421875 C 167.8125 138.914062 167.132812 138.574219 166.457031 138.574219 C 158.160156 138.574219 150.03125 138.574219 141.90625 138.574219 L 141.734375 138.574219 C 141.394531 138.574219 141.226562 138.574219 141.058594 138.574219 C 137.160156 138.574219 134.28125 137.890625 132.082031 136.363281 C 129.882812 134.839844 128.355469 134.15625 127.847656 134.328125 C 127.171875 134.5 125.816406 135.175781 123.953125 136.363281 C 121.921875 137.550781 118.367188 138.234375 113.457031 138.574219 L 89.578125 138.574219 C 88.734375 138.574219 88.226562 138.914062 87.71875 139.421875 C 87.210938 139.929688 87.039062 140.4375 87.039062 141.121094 L 87.039062 160.992188 C 86.871094 166.929688 86.195312 171.003906 85.179688 173.554688 C 84.839844 174.238281 84.839844 174.914062 85.179688 175.589844 C 85.347656 176.101562 85.855469 176.613281 86.53125 176.953125 C 87.210938 177.125 87.886719 177.125 88.394531 176.953125 C 89.070312 176.777344 89.578125 176.273438 89.917969 175.589844 C 91.105469 172.703125 91.78125 167.78125 92.121094 161.15625 L 92.121094 143.664062 L 110.914062 143.664062 L 110.914062 174.914062 C 110.914062 175.589844 111.253906 176.273438 111.761719 176.777344 C 112.269531 177.289062 112.777344 177.460938 113.457031 177.460938 C 114.132812 177.460938 114.8125 177.289062 115.320312 176.777344 C 115.828125 176.273438 115.996094 175.589844 115.996094 174.914062 L 115.996094 143.5 C 120.230469 142.988281 124.292969 141.972656 128.019531 140.4375 C 131.746094 142.308594 135.46875 143.5 139.195312 143.664062 L 139.195312 174.914062 C 139.195312 175.589844 139.53125 176.273438 140.039062 176.777344 C 140.546875 177.289062 141.058594 177.460938 141.734375 177.460938 C 142.410156 177.460938 143.089844 177.289062 143.597656 176.777344 C 144.105469 176.273438 144.273438 175.589844 144.273438 174.914062 L 144.273438 143.664062 C 150.878906 143.664062 157.3125 143.664062 163.917969 143.664062 L 163.917969 158.949219 C 163.917969 166.929688 164.933594 172.539062 167.132812 175.589844 C 167.472656 176.101562 167.980469 176.613281 168.660156 176.777344 C 169.335938 176.953125 170.011719 176.777344 170.519531 176.441406 C 171.027344 175.929688 171.535156 175.425781 171.707031 174.742188 C 171.875 174.066406 171.707031 173.386719 171.367188 172.875 C 169.84375 170.328125 168.996094 165.570312 168.996094 158.949219 Z M 168.996094 141.121094 "/>
<path style=" stroke:none;fill-rule:nonzero;fill:rgb(98.431373%,5.882353%,4.705882%);fill-opacity:1;" d="M 121.921875 86.949219 C 121.921875 86.269531 121.753906 85.757812 121.246094 85.25 C 120.738281 84.738281 120.058594 84.398438 119.382812 84.398438 L 90.257812 84.398438 C 89.410156 84.398438 88.902344 84.738281 88.394531 85.25 C 87.886719 85.757812 87.71875 86.269531 87.71875 86.949219 C 87.71875 87.628906 87.886719 88.304688 88.394531 88.816406 C 88.902344 89.328125 89.410156 89.496094 90.257812 89.496094 L 101.773438 89.496094 L 101.773438 126.003906 L 91.78125 126.003906 L 91.78125 106.136719 C 91.613281 105.460938 91.441406 104.949219 90.933594 104.441406 C 90.425781 103.929688 89.917969 103.589844 89.242188 103.589844 C 88.394531 103.589844 87.886719 103.929688 87.378906 104.441406 C 86.871094 104.949219 86.703125 105.460938 86.703125 106.136719 L 86.703125 127.703125 C 86.703125 127.875 86.703125 128.042969 86.703125 128.214844 C 86.703125 128.382812 86.703125 128.382812 86.703125 128.554688 C 86.703125 129.230469 86.871094 129.914062 87.378906 130.417969 C 87.886719 130.929688 88.394531 131.101562 89.242188 131.101562 L 119.550781 131.101562 C 120.230469 131.101562 120.90625 130.929688 121.414062 130.417969 C 121.921875 129.914062 122.089844 129.230469 122.089844 128.554688 C 122.089844 127.875 121.921875 127.367188 121.414062 126.855469 C 120.90625 126.34375 120.230469 126.003906 119.550781 126.003906 L 106.683594 126.003906 L 106.683594 112.421875 C 111.59375 112.421875 116.335938 112.421875 121.074219 112.421875 C 121.753906 112.421875 122.429688 112.25 122.9375 111.742188 C 123.445312 111.230469 123.617188 110.554688 123.617188 109.871094 C 123.617188 109.703125 123.617188 109.703125 123.617188 109.53125 C 123.617188 109.363281 123.617188 109.191406 123.617188 109.023438 L 123.617188 103.589844 C 123.617188 102.910156 123.445312 102.398438 122.9375 101.890625 C 122.429688 101.382812 121.753906 101.042969 121.074219 101.042969 C 120.398438 101.042969 119.890625 101.382812 119.382812 101.890625 C 118.875 102.398438 118.535156 102.910156 118.535156 103.589844 L 118.535156 107.328125 C 114.640625 107.328125 110.578125 107.328125 106.683594 107.328125 L 106.683594 89.496094 L 119.382812 89.496094 C 120.058594 89.496094 120.738281 89.328125 121.246094 88.816406 C 121.753906 88.304688 121.921875 87.628906 121.921875 86.949219 Z M 121.921875 86.949219 "/>
</g>
</svg>
